<svg version="1.1" id="Layer_1" xmlns="http://www.w3.org/2000/svg" x="0" y="0" viewBox="0 0 512 512" style="enable-background:new 0 0 512 512" xml:space="preserve"><style>.st2{fill:#4a555f}.st3{fill:#ffd452}.st4{fill:#f58e6f}</style><path d="m400.279 273.233-32.61-29.311a55.594 55.594 0 0 1-15.503-23.595l-20.198-60.116-.127-1.139a42.802 42.802 0 0 0-36.816-37.716 40.76 40.76 0 0 0-5.469-.373c-14.547 0-28.878 8.291-38.336 22.179-4.645 6.82-9.791 13.231-14.768 19.432a793.374 793.374 0 0 0-5.375 6.746l-72.52 92.386c-3.112 3.964-2.999 9.626.27 13.462a10.631 10.631 0 0 0 15.177 1.034l50.864-45.452-1.2 25.497c-.55 11.691 1.495 23.495 5.929 34.34.8 1.957 1.338 4.012 1.476 6.122l.033.509a18.47 18.47 0 0 1-.504 5.641l-15.409 62.085c-2.943 11.826-9.418 22.218-18.724 30.055l-48.603 38.966a18.08 18.08 0 0 0-6.329 12.405 18.068 18.068 0 0 0 4.359 13.33 18.194 18.194 0 0 0 13.798 6.31c3.533 0 6.973-1.025 9.799-2.864l61.314-41.44a36.146 36.146 0 0 0 14.877-20.081l19.399-64.707 15.519 17.678.449.713c6.501 10.294 9.529 22.158 8.76 34.307l-5.497 62.065c-.34 5.924 2.158 11.573 6.967 15.403 2.689 2.141 6.008 3.437 9.43 3.761.607.057 1.207.086 1.799.086 4.923 0 9.713-2.052 13.139-5.63 2.439-2.546 4.079-5.741 4.708-9.046l12.478-72.961a35.975 35.975 0 0 0-4.168-24.555l-.285-.493c-5.959-10.34-12.12-21.031-17.709-31.897a334.05 334.05 0 0 1-2.05-4.046c-11.585-23.238-4.062-48.724 2.577-71.209 1.412-4.783 2.746-9.301 3.85-13.641l19.366-3.108 13.894 21.554a34.06 34.06 0 0 0 6.425 7.375l31.205 26.829a10.894 10.894 0 0 0 7.193 2.679h.002c4.394 0 8.349-2.524 10.176-6.639 1.972-4.445.584-9.68-3.032-12.93z" style="fill:#dfdfdf"/><path class="st2" d="M232.138 310.795a86.738 86.738 0 0 1-8.308-14.59l-3.805-8.514-18.345 73.906c-2.229 8.963-7.134 16.836-14.122 22.719L138.98 423.26c-6.614 5.574-10.635 13.395-11.322 22.022-.686 8.624 2.046 16.978 7.691 23.524a32.102 32.102 0 0 0 24.344 11.142c6.235 0 12.302-1.805 17.594-5.252l61.146-41.329c9.939-6.512 17.251-16.366 20.583-27.729l14.356-47.893-41.234-46.95zm20.719 93.019c-2.907 9.918-9.28 18.504-17.983 24.206l-61.138 41.324a25.679 25.679 0 0 1-14.043 4.18 25.682 25.682 0 0 1-19.477-8.913c-4.516-5.236-6.701-11.919-6.153-18.818.55-6.903 3.767-13.16 8.998-17.569l48.576-38.943c8.09-6.81 13.719-15.846 16.281-26.134l14.016-56.468a93.499 93.499 0 0 0 5.059 7.966l39.206 44.664-13.342 44.505zM352.337 36.876c-8.977-8.975-20.909-13.918-33.603-13.917-26.203.001-47.522 21.32-47.522 47.523 0 12.694 4.942 24.627 13.917 33.603 8.977 8.975 20.909 13.918 33.603 13.917 26.203-.001 47.522-21.32 47.522-47.524.001-12.694-4.942-24.627-13.917-33.602zm-33.605 74.7c-10.976.001-21.296-4.274-29.058-12.036-7.762-7.762-12.037-18.082-12.037-29.059 0-22.661 18.437-41.097 41.097-41.098 10.976 0 21.296 4.274 29.058 12.036s12.037 18.082 12.037 29.059c0 22.661-18.437 41.097-41.097 41.098z"/><path class="st3" d="M342.493 46.72c-6.346-6.346-14.783-9.84-23.76-9.84-18.527.001-33.599 15.075-33.599 33.602 0 8.975 3.495 17.413 9.841 23.759 6.346 6.346 14.783 9.84 23.758 9.84 18.527-.001 33.601-15.074 33.601-33.602-.001-8.976-3.496-17.414-9.841-23.759z"/><path class="st2" d="m409.87 263.135-32.892-29.566a41.638 41.638 0 0 1-11.616-17.676l-19.834-59.038-6.237 1.391c.678 5.881.276 11.855-1.194 17.758L322.3 239.388l.416 2.518 13.896 21.553a47.855 47.855 0 0 0 9.05 10.39l31.204 26.829a24.961 24.961 0 0 0 20.062 5.758 24.97 24.97 0 0 0 17.437-11.475v-.001a24.964 24.964 0 0 0-4.495-31.825zm-.956 28.422a18.553 18.553 0 0 1-12.955 8.525 18.545 18.545 0 0 1-14.906-4.277l-31.204-26.829a41.464 41.464 0 0 1-7.837-8.998l-13.143-20.386 15.461-62.035c.203-.813.389-1.628.554-2.443l14.388 42.825a48.088 48.088 0 0 0 13.411 20.408l32.892 29.566a18.547 18.547 0 0 1 3.339 23.644z"/><path class="st2" d="m340.729 351.805-.345-.599c-5.858-10.163-11.913-20.673-17.335-31.211a372.63 372.63 0 0 1-1.968-3.886c-9.142-18.336-2.729-40.052 3.472-61.052 1.544-5.223 2.999-10.156 4.212-15.024l15.572-62.478a56.834 56.834 0 0 0-8.09-45.585 56.847 56.847 0 0 0-39.342-24.408c-21.61-2.942-43.525 7.695-57.191 27.762-4.342 6.373-9.316 12.572-14.126 18.567a783.227 783.227 0 0 0-5.459 6.852l-72.522 92.386c-7.187 9.155-6.925 22.229.623 31.087 4.325 5.075 10.37 8.119 17.023 8.572 6.653.452 13.055-1.745 18.025-6.187l26.429-23.613c.586 18.469 6.607 36.575 17.293 51.665l42.415 48.318c4.831 7.747 7.08 16.655 6.509 25.7l-5.497 62.022c-.55 8.628 2.313 16.938 8.063 23.399 5.754 6.466 13.683 10.277 22.329 10.732a32.111 32.111 0 0 0 24.883-9.877c4.302-4.491 7.197-10.117 8.379-16.33l12.438-72.748a49.896 49.896 0 0 0-5.79-34.064zm-.535 32.933-12.436 72.738a25.738 25.738 0 0 1-6.695 13.027 25.719 25.719 0 0 1-19.907 7.906c-6.917-.364-13.262-3.414-17.866-8.587-4.599-5.169-6.892-11.817-6.457-18.64l5.497-62.024c.667-10.567-1.966-20.882-7.615-29.829l-42.565-48.526c-11.217-15.906-16.889-35.393-15.969-54.891l.362-7.65L179 281.808a18.017 18.017 0 0 1-13.308 4.568 17.992 17.992 0 0 1-12.57-6.328c-5.572-6.54-5.766-16.192-.46-22.952l72.522-92.386a809.85 809.85 0 0 1 5.417-6.798c4.888-6.092 9.943-12.391 14.423-18.971 12.476-18.315 31.549-27.664 51.017-25.013a50.413 50.413 0 0 1 34.889 21.645 50.409 50.409 0 0 1 7.176 40.423l-15.572 62.482c-1.182 4.734-2.619 9.603-4.141 14.758-6.248 21.159-13.33 45.141-3.06 65.741a406.696 406.696 0 0 0 2.002 3.953l.002.004c5.49 10.674 11.587 21.251 17.481 31.48l.345.599c5.156 8.95 6.947 19.488 5.031 29.725z"/><path transform="rotate(-44.291 231.795 237.397)" class="st2" d="M205.497 234.183h52.601v6.427h-52.601z"/><path class="st2" d="m473.269 295.133-111.53 52.539 38.733 82.219L512 377.352l-38.731-82.219zm-102.98 55.614 99.905-47.064 33.256 70.595-99.903 47.063-33.258-70.594z"/><path transform="rotate(-25.227 436.83 362.496)" class="st3" d="M389.149 330.99h95.441v63.043h-95.441z"/><path class="st2" d="m425.456 301.763-28.776 13.556 8.866 18.819 28.773-13.555-8.863-18.82zm-20.225 16.63 17.151-8.079 3.388 7.194-17.149 8.079-3.39-7.194z"/><path class="st2" d="M436.292 294.547c-2.447-5.195-8.724-7.405-13.988-4.925l-32.823 15.463a10.557 10.557 0 0 0-5.44 5.912 10.276 10.276 0 0 0 .331 8.01l9.68 20.547 51.921-24.46-9.681-20.547zm-46.108 21.72a3.897 3.897 0 0 1-.117-3.04 4.167 4.167 0 0 1 2.154-2.331l32.823-15.463a4.22 4.22 0 0 1 1.801-.406c1.523 0 2.964.831 3.635 2.257l6.942 14.734-40.296 18.983-6.942-14.734zM404.406 347.774l2.719 5.822 5.821-2.719-2.719-5.822-5.821 2.719zm-23.285 10.879 2.719 5.821 5.821-2.72-2.719-5.821-5.821 2.72zm11.644-5.439 2.719 5.821 5.821-2.72-2.719-5.821-5.821 2.72zm23.285-10.878 2.719 5.821 5.821-2.72-2.719-5.821-5.821 2.72zm23.285-10.878 2.719 5.821 5.821-2.72-2.719-5.821-5.821 2.72zm-11.643 5.439 2.719 5.821 5.821-2.72-2.719-5.821-5.821 2.72zm40.749-19.036-5.821 2.719 2.719 5.821 5.821-2.72-2.719-5.82zm-17.464 8.157 2.719 5.822 5.823-2.72-2.719-5.822-5.823 2.72zM80.308 299.766c-15.478-6.257-33.155 1.239-39.415 16.714l-39.12 96.73c-5.024 12.426.998 26.624 13.422 31.65l30.917 12.504 1.205-2.979c4.185-10.352 15.672-15.421 26.124-11.553.826.31 1.537.625 2.228.992 9.251 4.697 13.516 15.604 9.922 25.371l5.992 2.314 58.11-143.681-69.385-28.062zm-1.677 138.357a24.882 24.882 0 0 0-2.947-1.312 27.164 27.164 0 0 0-9.445-1.705 26.774 26.774 0 0 0-23.503 13.962l-25.132-10.164c-9.14-3.697-13.57-14.143-9.874-23.284l39.12-96.729c4.932-12.191 18.859-18.096 31.049-13.167l63.426 25.652-49.421 122.196c-2.163-6.508-6.785-12.155-13.273-15.449z"/><path d="M75.089 312.672a16.24 16.24 0 0 0-6.12-1.2A16.291 16.291 0 0 0 53.801 321.7l-39.123 96.73a10.326 10.326 0 0 0 .067 7.95 10.315 10.315 0 0 0 5.67 5.574l19.573 7.917c6.417-7.647 15.959-12.236 26.354-12.236 4.076 0 8.096.722 11.993 2.165 1.391.522 2.64 1.081 3.631 1.611a34.312 34.312 0 0 1 8.394 5.99l41.208-101.887-56.479-22.842z" style="fill:#71cce0"/><path class="st2" d="M162.655 285.899a17.823 17.823 0 0 1-9.531-5.853c-2.276-2.679-3.708-5.896-4.143-9.303l-1.562-12.181-26.163 64.697 26.029 10.517 19.004-47.011-3.634-.866zm-18.918 39.512-14.116-5.703 15.915-39.355a24.913 24.913 0 0 0 2.688 3.848 24.2 24.2 0 0 0 9.414 6.822l-13.901 34.388zM90.816 450.807c-3.012-6.538-8.389-11.512-15.141-14.005-6.756-2.495-14.074-2.209-20.61.801-6.538 3.011-11.512 8.388-14.005 15.14-2.493 6.752-2.209 14.071.801 20.61 3.012 6.538 8.389 11.512 15.141 14.006a26.954 26.954 0 0 0 9.351 1.684 26.88 26.88 0 0 0 11.259-2.485c6.538-3.011 11.512-8.388 14.005-15.141 2.493-6.753 2.209-14.072-.801-20.61zm-5.227 18.383a20.382 20.382 0 0 1-10.667 11.53 20.384 20.384 0 0 1-15.695.611 20.39 20.39 0 0 1-11.529-10.667 20.387 20.387 0 0 1-.611-15.696 20.388 20.388 0 0 1 10.665-11.53 20.454 20.454 0 0 1 8.573-1.893c2.399 0 4.806.426 7.124 1.282a20.388 20.388 0 0 1 11.529 10.666 20.38 20.38 0 0 1 .611 15.697z"/><path class="st4" d="M70.851 449.859a13 13 0 0 0-4.509-.813c-5.43 0-10.341 3.424-12.223 8.521a12.931 12.931 0 0 0 .387 9.962 12.951 12.951 0 0 0 7.318 6.771 12.98 12.98 0 0 0 4.512.813c5.428 0 10.341-3.424 12.223-8.519 2.489-6.738-.969-14.246-7.708-16.735z"/><path class="st2" d="m37.264 403.64 5.953 2.422 2.422-5.952-5.953-2.422-2.422 5.952zm4.842-11.903 5.953 2.422 2.422-5.952-5.953-2.422-2.422 5.952zm4.842-11.904 5.953 2.422 2.422-5.951-5.953-2.422-2.422 5.951zM27.58 427.447l5.953 2.422 2.422-5.951-5.953-2.422-2.422 5.951zm-7.508 18.461 5.948 2.428.249-.61-5.948-2.428-.249.61zm2.667-6.558 5.952 2.422 2.422-5.951-5.953-2.422-2.421 5.951zm9.683-23.807 5.953 2.422 2.422-5.951-5.953-2.422-2.422 5.951zm33.894-83.323 5.953 2.422 2.422-5.952-5.953-2.422-2.422 5.952zm4.842-11.903 5.953 2.422 2.422-5.951-5.953-2.422-2.422 5.951zm7.264-17.855L76 308.413l5.953 2.422 2.422-5.952-5.953-2.421zm-21.79 53.565 5.952 2.422 2.422-5.952-5.953-2.422-2.421 5.952zM51.79 367.93l5.953 2.422 2.422-5.952-5.952-2.422-2.423 5.952zm9.684-23.807 5.953 2.422 2.422-5.951-5.953-2.422-2.422 5.951zM261.815 91.144v-6.425h-67.992l40.229-43.446h-35.615l-81.085 43.446H65.53a42.276 42.276 0 0 0-24.503 7.775l-18.989 13.4a15.334 15.334 0 0 0-6.482 12.509c0 8.443 6.869 15.311 15.312 15.311H226.3v-6.425H30.868c-4.901 0-8.887-3.986-8.887-8.886a8.896 8.896 0 0 1 3.763-7.26l18.989-13.4a35.88 35.88 0 0 1 20.796-6.599h53.437l81.085-43.446h19.292l-40.229 43.446h82.701z"/><path class="st4" d="m161.95 98.647 16.663-17.99 23.581-25.466h-.257l-78.709 42.171-2.377 1.285H65.528c-5.933 0-11.63 1.799-16.47 5.226l-18.997 13.386a1.42 1.42 0 0 0-.578 1.135 1.39 1.39 0 0 0 1.392 1.393h200.039c7.539-9.017 14.985-16.492 25.971-21.139H161.95z"/><path class="st2" d="M83.021 121.615h6.425v-6.425h-6.425v6.425zm-12.85 0h6.425v-6.425h-6.425v6.425zm51.402 0h6.425v-6.425h-6.425v6.425zm-12.851 0h6.425v-6.425h-6.425v6.425zm-89.953 0h6.425v-6.425h-6.425v6.425zm38.551 0h6.425v-6.425H57.32v6.425zm-25.701 0h6.425v-6.425h-6.425v6.425zm12.851 0h6.425v-6.425H44.47v6.425zm51.402 0h6.425v-6.425h-6.425v6.425zm102.803 0h6.425v-6.425h-6.425v6.425zm12.851 0h6.425v-6.425h-6.425v6.425zm-25.701 0h6.425v-6.425h-6.425v6.425zm38.551-6.425v6.425h6.425v-6.425h-6.425zm-51.402 6.425h6.425v-6.425h-6.425v6.425zm-25.701 0h6.425v-6.425h-6.425v6.425zm12.851 0h6.425v-6.425h-6.425v6.425zm-25.701 0h6.425v-6.425h-6.425v6.425zM437.484 387.798l2.719 5.821 5.821-2.72-2.719-5.821-5.821 2.72zm-11.643 5.439 2.719 5.821 5.821-2.72-2.719-5.821-5.821 2.72zm-23.286 10.878 2.719 5.821 5.821-2.72-2.719-5.821-5.821 2.72zm11.644-5.44 2.719 5.822 5.821-2.719-2.719-5.822-5.821 2.719zm34.927-16.316 2.719 5.822 5.823-2.72-2.719-5.822-5.823 2.72zm23.285-10.878 2.719 5.822 5.823-2.719-2.719-5.822-5.823 2.719zm17.464-8.158-5.821 2.72 2.719 5.821 5.821-2.72-2.719-5.821zM460.77 376.92l2.719 5.821 5.821-2.72-2.719-5.821-5.821 2.72z"/></svg>